<svg xmlns="http://www.w3.org/2000/svg" viewBox="0 0 880 780" font-family="-apple-system,Segoe UI,Helvetica,Arial,sans-serif">
<style>
  .bg{fill:#fcfcfb}.t1{fill:#0b0b0b}.t2{fill:#52514e}.grid{stroke:#e8e7e4;stroke-width:1}
  .zero{stroke:#a6a49d;stroke-width:1}
  .vol{fill:#2a78d6}.fil{fill:#eb6834}.pos{fill:#2a78d6}.neg{fill:#e34948}
  text{font-size:12px}.title{font-size:15px;font-weight:600}.sub{font-size:12px}
  .lbl{font-size:11px}
  @media (prefers-color-scheme: dark){
    .bg{fill:#1a1a19}.t1{fill:#ffffff}.t2{fill:#c3c2b7}.grid{stroke:#2c2c2a}
    .zero{stroke:#6b6a64}.vol{fill:#3987e5}.fil{fill:#d95926}.pos{fill:#3987e5}.neg{fill:#e66767}
  }
</style>
<rect class="bg" x="0" y="0" width="880" height="780"/>
<text class="t1 title" x="62" y="26">bacchus-mm daily ledger</text>
<text class="t2 sub" x="62" y="44">Daily volume traded ($), fills (#), and daily net PnL ($, settled, fees included) - 2026-07-15 to 2026-08-12</text>
<text class="t2" x="62" y="58">Volume $</text>
<line class="grid" x1="62" x2="866" y1="191.3" y2="191.3"/>
<text class="t2 lbl" x="56" y="195.3" text-anchor="end">1,000</text>
<line class="grid" x1="62" x2="866" y1="142.6" y2="142.6"/>
<text class="t2 lbl" x="56" y="146.6" text-anchor="end">2,000</text>
<line class="grid" x1="62" x2="866" y1="93.9" y2="93.9"/>
<text class="t2 lbl" x="56" y="97.9" text-anchor="end">3,000</text>
<line class="zero" x1="62" x2="866" y1="240" y2="240"/>
<path d="M67.9,240.0 L67.9,243.0 Q67.9,239.0 71.9,239.0 L79.9,239.0 Q83.9,239.0 83.9,243.0 L83.9,240.0 Z" class="vol"><title>2026-07-15: $9.55 volume, 10 fills, 8 markets</title></path>
<path d="M95.6,240.0 L95.6,243.0 Q95.6,239.0 99.6,239.0 L107.6,239.0 Q111.6,239.0 111.6,243.0 L111.6,240.0 Z" class="vol"><title>2026-07-16: $3.77 volume, 6 fills, 4 markets</title></path>
<path d="M123.3,240.0 L123.3,243.0 Q123.3,239.0 127.3,239.0 L135.3,239.0 Q139.3,239.0 139.3,243.0 L139.3,240.0 Z" class="vol"><title>2026-07-17: $17.54 volume, 15 fills, 13 markets</title></path>
<path d="M151.0,240.0 L151.0,243.0 Q151.0,239.0 155.0,239.0 L163.0,239.0 Q167.0,239.0 167.0,243.0 L167.0,240.0 Z" class="vol"><title>2026-07-18: $5.92 volume, 6 fills, 2 markets</title></path>
<path d="M178.8,240.0 L178.8,242.6 Q178.8,238.6 182.8,238.6 L190.8,238.6 Q194.8,238.6 194.8,242.6 L194.8,240.0 Z" class="vol"><title>2026-07-19: $27.96 volume, 12 fills, 6 markets</title></path>
<path d="M206.5,240.0 L206.5,243.0 Q206.5,239.0 210.5,239.0 L218.5,239.0 Q222.5,239.0 222.5,243.0 L222.5,240.0 Z" class="vol"><title>2026-07-20: $9.20 volume, 4 fills, 2 markets</title></path>
<path d="M234.2,240.0 L234.2,243.0 Q234.2,239.0 238.2,239.0 L246.2,239.0 Q250.2,239.0 250.2,243.0 L250.2,240.0 Z" class="vol"><title>2026-07-21: $14.90 volume, 6 fills, 2 markets</title></path>
<path d="M261.9,240.0 L261.9,242.8 Q261.9,238.8 265.9,238.8 L273.9,238.8 Q277.9,238.8 277.9,242.8 L277.9,240.0 Z" class="vol"><title>2026-07-22: $23.92 volume, 10 fills, 3 markets</title></path>
<path d="M289.7,240.0 L289.7,242.8 Q289.7,238.8 293.7,238.8 L301.7,238.8 Q305.7,238.8 305.7,242.8 L305.7,240.0 Z" class="vol"><title>2026-07-23: $23.73 volume, 9 fills, 2 markets</title></path>
<path d="M317.4,240.0 L317.4,243.0 Q317.4,239.0 321.4,239.0 L329.4,239.0 Q333.4,239.0 333.4,243.0 L333.4,240.0 Z" class="vol"><title>2026-07-24: $5.10 volume, 2 fills, 1 markets</title></path>
<path d="M345.1,240.0 L345.1,243.0 Q345.1,239.0 349.1,239.0 L357.1,239.0 Q361.1,239.0 361.1,243.0 L361.1,240.0 Z" class="vol"><title>2026-07-25: $0.74 volume, 1 fills, 1 markets</title></path>
<path d="M372.8,240.0 L372.8,243.0 Q372.8,239.0 376.8,239.0 L384.8,239.0 Q388.8,239.0 388.8,243.0 L388.8,240.0 Z" class="vol"><title>2026-07-26: $9.79 volume, 9 fills, 3 markets</title></path>
<path d="M400.6,240.0 L400.6,243.0 Q400.6,239.0 404.6,239.0 L412.6,239.0 Q416.6,239.0 416.6,243.0 L416.6,240.0 Z" class="vol"><title>2026-07-27: $20.64 volume, 21 fills, 7 markets</title></path>
<path d="M428.3,240.0 L428.3,243.0 Q428.3,239.0 432.3,239.0 L440.3,239.0 Q444.3,239.0 444.3,243.0 L444.3,240.0 Z" class="vol"><title>2026-07-28: $19.00 volume, 23 fills, 3 markets</title></path>
<path d="M456.0,240.0 L456.0,243.0 Q456.0,239.0 460.0,239.0 L468.0,239.0 Q472.0,239.0 472.0,243.0 L472.0,240.0 Z" class="vol"><title>2026-07-29: $10.25 volume, 11 fills, 3 markets</title></path>
<path d="M483.7,240.0 L483.7,243.0 Q483.7,239.0 487.7,239.0 L495.7,239.0 Q499.7,239.0 499.7,243.0 L499.7,240.0 Z" class="vol"><title>2026-07-30: $3.34 volume, 4 fills, 3 markets</title></path>
<path d="M539.2,240.0 L539.2,243.0 Q539.2,239.0 543.2,239.0 L551.2,239.0 Q555.2,239.0 555.2,243.0 L555.2,240.0 Z" class="vol"><title>2026-08-01: $1.42 volume, 2 fills, 2 markets</title></path>
<path d="M566.9,240.0 L566.9,243.0 Q566.9,239.0 570.9,239.0 L578.9,239.0 Q582.9,239.0 582.9,243.0 L582.9,240.0 Z" class="vol"><title>2026-08-02: $1.12 volume, 1 fills, 1 markets</title></path>
<path d="M594.6,240.0 L594.6,243.0 Q594.6,239.0 598.6,239.0 L606.6,239.0 Q610.6,239.0 610.6,243.0 L610.6,240.0 Z" class="vol"><title>2026-08-03: $2.04 volume, 2 fills, 1 markets</title></path>
<path d="M622.3,240.0 L622.3,243.0 Q622.3,239.0 626.3,239.0 L634.3,239.0 Q638.3,239.0 638.3,243.0 L638.3,240.0 Z" class="vol"><title>2026-08-04: $2.32 volume, 2 fills, 1 markets</title></path>
<path d="M677.8,240.0 L677.8,189.4 Q677.8,185.4 681.8,185.4 L689.8,185.4 Q693.8,185.4 693.8,189.4 L693.8,240.0 Z" class="vol"><title>2026-08-06: $1,121 volume, 2326 fills, 73 markets</title></path>
<path d="M705.5,240.0 L705.5,147.3 Q705.5,143.3 709.5,143.3 L717.5,143.3 Q721.5,143.3 721.5,147.3 L721.5,240.0 Z" class="vol"><title>2026-08-07: $1,987 volume, 3757 fills, 335 markets</title></path>
<path d="M733.2,240.0 L733.2,82.9 Q733.2,78.9 737.2,78.9 L745.2,78.9 Q749.2,78.9 749.2,82.9 L749.2,240.0 Z" class="vol"><title>2026-08-08: $3,309 volume, 6588 fills, 239 markets</title></path>
<text class="t2 lbl" x="741.2" y="73.9" text-anchor="middle">3,309</text>
<path d="M761.0,240.0 L761.0,131.4 Q761.0,127.4 765.0,127.4 L773.0,127.4 Q777.0,127.4 777.0,131.4 L777.0,240.0 Z" class="vol"><title>2026-08-09: $2,312 volume, 4494 fills, 191 markets</title></path>
<path d="M788.7,240.0 L788.7,151.5 Q788.7,147.5 792.7,147.5 L800.7,147.5 Q804.7,147.5 804.7,151.5 L804.7,240.0 Z" class="vol"><title>2026-08-10: $1,900 volume, 3333 fills, 448 markets</title></path>
<path d="M816.4,240.0 L816.4,166.6 Q816.4,162.6 820.4,162.6 L828.4,162.6 Q832.4,162.6 832.4,166.6 L832.4,240.0 Z" class="vol"><title>2026-08-11: $1,589 volume, 2820 fills, 372 markets</title></path>
<path d="M844.1,240.0 L844.1,232.2 Q844.1,228.2 848.1,228.2 L856.1,228.2 Q860.1,228.2 860.1,232.2 L860.1,240.0 Z" class="vol"><title>2026-08-12: $243 volume, 417 fills, 66 markets</title></path>
<text class="t2 lbl" x="852.1" y="223.2" text-anchor="middle">243</text>
<text class="t2" x="62" y="294">Fills #</text>
<line class="grid" x1="62" x2="866" y1="425.8" y2="425.8"/>
<text class="t2 lbl" x="56" y="429.8" text-anchor="end">1,000</text>
<line class="grid" x1="62" x2="866" y1="405.5" y2="405.5"/>
<text class="t2 lbl" x="56" y="409.5" text-anchor="end">2,000</text>
<line class="grid" x1="62" x2="866" y1="385.3" y2="385.3"/>
<text class="t2 lbl" x="56" y="389.3" text-anchor="end">3,000</text>
<line class="grid" x1="62" x2="866" y1="365.0" y2="365.0"/>
<text class="t2 lbl" x="56" y="369.0" text-anchor="end">4,000</text>
<line class="grid" x1="62" x2="866" y1="344.8" y2="344.8"/>
<text class="t2 lbl" x="56" y="348.8" text-anchor="end">5,000</text>
<line class="grid" x1="62" x2="866" y1="324.6" y2="324.6"/>
<text class="t2 lbl" x="56" y="328.6" text-anchor="end">6,000</text>
<line class="grid" x1="62" x2="866" y1="304.3" y2="304.3"/>
<text class="t2 lbl" x="56" y="308.3" text-anchor="end">7,000</text>
<line class="zero" x1="62" x2="866" y1="446" y2="446"/>
<path d="M67.9,446.0 L67.9,449.0 Q67.9,445.0 71.9,445.0 L79.9,445.0 Q83.9,445.0 83.9,449.0 L83.9,446.0 Z" class="fil"><title>2026-07-15: 10 fills, 19.0 contracts, 8 markets</title></path>
<path d="M95.6,446.0 L95.6,449.0 Q95.6,445.0 99.6,445.0 L107.6,445.0 Q111.6,445.0 111.6,449.0 L111.6,446.0 Z" class="fil"><title>2026-07-16: 6 fills, 11.2 contracts, 4 markets</title></path>
<path d="M123.3,446.0 L123.3,449.0 Q123.3,445.0 127.3,445.0 L135.3,445.0 Q139.3,445.0 139.3,449.0 L139.3,446.0 Z" class="fil"><title>2026-07-17: 15 fills, 27.0 contracts, 13 markets</title></path>
<path d="M151.0,446.0 L151.0,449.0 Q151.0,445.0 155.0,445.0 L163.0,445.0 Q167.0,445.0 167.0,449.0 L167.0,446.0 Z" class="fil"><title>2026-07-18: 6 fills, 12.0 contracts, 2 markets</title></path>
<path d="M178.8,446.0 L178.8,449.0 Q178.8,445.0 182.8,445.0 L190.8,445.0 Q194.8,445.0 194.8,449.0 L194.8,446.0 Z" class="fil"><title>2026-07-19: 12 fills, 57.0 contracts, 6 markets</title></path>
<path d="M206.5,446.0 L206.5,449.0 Q206.5,445.0 210.5,445.0 L218.5,445.0 Q222.5,445.0 222.5,449.0 L222.5,446.0 Z" class="fil"><title>2026-07-20: 4 fills, 20.0 contracts, 2 markets</title></path>
<path d="M234.2,446.0 L234.2,449.0 Q234.2,445.0 238.2,445.0 L246.2,445.0 Q250.2,445.0 250.2,449.0 L250.2,446.0 Z" class="fil"><title>2026-07-21: 6 fills, 30.0 contracts, 2 markets</title></path>
<path d="M261.9,446.0 L261.9,449.0 Q261.9,445.0 265.9,445.0 L273.9,445.0 Q277.9,445.0 277.9,449.0 L277.9,446.0 Z" class="fil"><title>2026-07-22: 10 fills, 47.0 contracts, 3 markets</title></path>
<path d="M289.7,446.0 L289.7,449.0 Q289.7,445.0 293.7,445.0 L301.7,445.0 Q305.7,445.0 305.7,449.0 L305.7,446.0 Z" class="fil"><title>2026-07-23: 9 fills, 41.0 contracts, 2 markets</title></path>
<path d="M317.4,446.0 L317.4,449.0 Q317.4,445.0 321.4,445.0 L329.4,445.0 Q333.4,445.0 333.4,449.0 L333.4,446.0 Z" class="fil"><title>2026-07-24: 2 fills, 10.0 contracts, 1 markets</title></path>
<path d="M345.1,446.0 L345.1,449.0 Q345.1,445.0 349.1,445.0 L357.1,445.0 Q361.1,445.0 361.1,449.0 L361.1,446.0 Z" class="fil"><title>2026-07-25: 1 fills, 1.0 contracts, 1 markets</title></path>
<path d="M372.8,446.0 L372.8,449.0 Q372.8,445.0 376.8,445.0 L384.8,445.0 Q388.8,445.0 388.8,449.0 L388.8,446.0 Z" class="fil"><title>2026-07-26: 9 fills, 19.6 contracts, 3 markets</title></path>
<path d="M400.6,446.0 L400.6,449.0 Q400.6,445.0 404.6,445.0 L412.6,445.0 Q416.6,445.0 416.6,449.0 L416.6,446.0 Z" class="fil"><title>2026-07-27: 21 fills, 39.0 contracts, 7 markets</title></path>
<path d="M428.3,446.0 L428.3,449.0 Q428.3,445.0 432.3,445.0 L440.3,445.0 Q444.3,445.0 444.3,449.0 L444.3,446.0 Z" class="fil"><title>2026-07-28: 23 fills, 39.7 contracts, 3 markets</title></path>
<path d="M456.0,446.0 L456.0,449.0 Q456.0,445.0 460.0,445.0 L468.0,445.0 Q472.0,445.0 472.0,449.0 L472.0,446.0 Z" class="fil"><title>2026-07-29: 11 fills, 18.1 contracts, 3 markets</title></path>
<path d="M483.7,446.0 L483.7,449.0 Q483.7,445.0 487.7,445.0 L495.7,445.0 Q499.7,445.0 499.7,449.0 L499.7,446.0 Z" class="fil"><title>2026-07-30: 4 fills, 6.0 contracts, 3 markets</title></path>
<path d="M539.2,446.0 L539.2,449.0 Q539.2,445.0 543.2,445.0 L551.2,445.0 Q555.2,445.0 555.2,449.0 L555.2,446.0 Z" class="fil"><title>2026-08-01: 2 fills, 4.0 contracts, 2 markets</title></path>
<path d="M566.9,446.0 L566.9,449.0 Q566.9,445.0 570.9,445.0 L578.9,445.0 Q582.9,445.0 582.9,449.0 L582.9,446.0 Z" class="fil"><title>2026-08-02: 1 fills, 2.0 contracts, 1 markets</title></path>
<path d="M594.6,446.0 L594.6,449.0 Q594.6,445.0 598.6,445.0 L606.6,445.0 Q610.6,445.0 610.6,449.0 L610.6,446.0 Z" class="fil"><title>2026-08-03: 2 fills, 4.0 contracts, 1 markets</title></path>
<path d="M622.3,446.0 L622.3,449.0 Q622.3,445.0 626.3,445.0 L634.3,445.0 Q638.3,445.0 638.3,449.0 L638.3,446.0 Z" class="fil"><title>2026-08-04: 2 fills, 4.0 contracts, 1 markets</title></path>
<path d="M677.8,446.0 L677.8,402.9 Q677.8,398.9 681.8,398.9 L689.8,398.9 Q693.8,398.9 693.8,402.9 L693.8,446.0 Z" class="fil"><title>2026-08-06: 2,326 fills, 2246.6 contracts, 73 markets</title></path>
<path d="M705.5,446.0 L705.5,374.0 Q705.5,370.0 709.5,370.0 L717.5,370.0 Q721.5,370.0 721.5,374.0 L721.5,446.0 Z" class="fil"><title>2026-08-07: 3,757 fills, 3621.8 contracts, 335 markets</title></path>
<path d="M733.2,446.0 L733.2,316.7 Q733.2,312.7 737.2,312.7 L745.2,312.7 Q749.2,312.7 749.2,316.7 L749.2,446.0 Z" class="fil"><title>2026-08-08: 6,588 fills, 6339.7 contracts, 239 markets</title></path>
<text class="t2 lbl" x="741.2" y="307.7" text-anchor="middle">6,588</text>
<path d="M761.0,446.0 L761.0,359.0 Q761.0,355.0 765.0,355.0 L773.0,355.0 Q777.0,355.0 777.0,359.0 L777.0,446.0 Z" class="fil"><title>2026-08-09: 4,494 fills, 4344.9 contracts, 191 markets</title></path>
<path d="M788.7,446.0 L788.7,382.5 Q788.7,378.5 792.7,378.5 L800.7,378.5 Q804.7,378.5 804.7,382.5 L804.7,446.0 Z" class="fil"><title>2026-08-10: 3,333 fills, 3168.7 contracts, 448 markets</title></path>
<path d="M816.4,446.0 L816.4,392.9 Q816.4,388.9 820.4,388.9 L828.4,388.9 Q832.4,388.9 832.4,392.9 L832.4,446.0 Z" class="fil"><title>2026-08-11: 2,820 fills, 2680.8 contracts, 372 markets</title></path>
<path d="M844.1,446.0 L844.1,441.6 Q844.1,437.6 848.1,437.6 L856.1,437.6 Q860.1,437.6 860.1,441.6 L860.1,446.0 Z" class="fil"><title>2026-08-12: 417 fills, 388.4 contracts, 66 markets</title></path>
<text class="t2 lbl" x="852.1" y="432.6" text-anchor="middle">417</text>
<text class="t2" x="62" y="500">Net PnL $</text>
<line class="grid" x1="62" x2="866" y1="680.3" y2="680.3"/>
<text class="t2 lbl" x="56" y="684.3" text-anchor="end">-25</text>
<line class="grid" x1="62" x2="866" y1="595.5" y2="595.5"/>
<text class="t2 lbl" x="56" y="599.5" text-anchor="end">-2</text>
<line class="zero" x1="62" x2="866" y1="588.1" y2="588.1"/>
<text class="t2 lbl" x="56" y="592.1" text-anchor="end">0</text>
<path d="M67.9,588.1 L67.9,585.9 Q67.9,589.9 71.9,589.9 L79.9,589.9 Q83.9,589.9 83.9,585.9 L83.9,588.1 Z" class="neg"><title>2026-07-15: -0.47 net PnL (cum -0.47)</title></path>
<path d="M95.6,588.1 L95.6,585.1 Q95.6,589.1 99.6,589.1 L107.6,589.1 Q111.6,589.1 111.6,585.1 L111.6,588.1 Z" class="neg"><title>2026-07-16: -0.19 net PnL (cum -0.66)</title></path>
<path d="M123.3,588.1 L123.3,589.4 Q123.3,593.4 127.3,593.4 L135.3,593.4 Q139.3,593.4 139.3,589.4 L139.3,588.1 Z" class="neg"><title>2026-07-17: -1.42 net PnL (cum -2.08)</title></path>
<path d="M151.0,588.1 L151.0,585.1 Q151.0,589.1 155.0,589.1 L163.0,589.1 Q167.0,589.1 167.0,585.1 L167.0,588.1 Z" class="neg"><title>2026-07-18: -0.02 net PnL (cum -2.10)</title></path>
<path d="M178.8,588.1 L178.8,592.8 Q178.8,596.8 182.8,596.8 L190.8,596.8 Q194.8,596.8 194.8,592.8 L194.8,588.1 Z" class="neg"><title>2026-07-19: -2.35 net PnL (cum -4.45)</title></path>
<path d="M206.5,588.1 L206.5,585.1 Q206.5,581.1 210.5,581.1 L218.5,581.1 Q222.5,581.1 222.5,585.1 L222.5,588.1 Z" class="pos"><title>2026-07-20: +1.90 net PnL (cum -2.55)</title></path>
<path d="M234.2,588.1 L234.2,591.1 Q234.2,587.1 238.2,587.1 L246.2,587.1 Q250.2,587.1 250.2,591.1 L250.2,588.1 Z" class="pos"><title>2026-07-21: +0.15 net PnL (cum -2.40)</title></path>
<path d="M261.9,588.1 L261.9,592.3 Q261.9,596.3 265.9,596.3 L273.9,596.3 Q277.9,596.3 277.9,592.3 L277.9,588.1 Z" class="neg"><title>2026-07-22: -2.20 net PnL (cum -4.60)</title></path>
<path d="M289.7,588.1 L289.7,590.7 Q289.7,586.7 293.7,586.7 L301.7,586.7 Q305.7,586.7 305.7,590.7 L305.7,588.1 Z" class="pos"><title>2026-07-23: +0.40 net PnL (cum -4.20)</title></path>
<path d="M317.4,588.1 L317.4,585.1 Q317.4,589.1 321.4,589.1 L329.4,589.1 Q333.4,589.1 333.4,585.1 L333.4,588.1 Z" class="pos"><title>2026-07-24: +0.00 net PnL (cum -4.20)</title></path>
<path d="M345.1,588.1 L345.1,585.1 Q345.1,589.1 349.1,589.1 L357.1,589.1 Q361.1,589.1 361.1,585.1 L361.1,588.1 Z" class="pos"><title>2026-07-25: +0.00 net PnL (cum -4.20)</title></path>
<path d="M372.8,588.1 L372.8,585.1 Q372.8,589.1 376.8,589.1 L384.8,589.1 Q388.8,589.1 388.8,585.1 L388.8,588.1 Z" class="neg"><title>2026-07-26: -0.04 net PnL (cum -4.24)</title></path>
<path d="M400.6,588.1 L400.6,585.1 Q400.6,589.1 404.6,589.1 L412.6,589.1 Q416.6,589.1 416.6,585.1 L416.6,588.1 Z" class="neg"><title>2026-07-27: -0.05 net PnL (cum -4.29)</title></path>
<path d="M428.3,588.1 L428.3,585.1 Q428.3,589.1 432.3,589.1 L440.3,589.1 Q444.3,589.1 444.3,585.1 L444.3,588.1 Z" class="pos"><title>2026-07-28: -0.00 net PnL (cum -4.29)</title></path>
<path d="M456.0,588.1 L456.0,585.1 Q456.0,589.1 460.0,589.1 L468.0,589.1 Q472.0,589.1 472.0,585.1 L472.0,588.1 Z" class="neg"><title>2026-07-29: -0.03 net PnL (cum -4.32)</title></path>
<path d="M483.7,588.1 L483.7,585.1 Q483.7,589.1 487.7,589.1 L495.7,589.1 Q499.7,589.1 499.7,585.1 L499.7,588.1 Z" class="pos"><title>2026-07-30: +0.00 net PnL (cum -4.32)</title></path>
<path d="M539.2,588.1 L539.2,585.1 Q539.2,589.1 543.2,589.1 L551.2,589.1 Q555.2,589.1 555.2,585.1 L555.2,588.1 Z" class="pos"><title>2026-08-01: +0.00 net PnL (cum -4.32)</title></path>
<path d="M566.9,588.1 L566.9,585.1 Q566.9,589.1 570.9,589.1 L578.9,589.1 Q582.9,589.1 582.9,585.1 L582.9,588.1 Z" class="pos"><title>2026-08-02: +0.00 net PnL (cum -4.32)</title></path>
<path d="M594.6,588.1 L594.6,585.1 Q594.6,589.1 598.6,589.1 L606.6,589.1 Q610.6,589.1 610.6,585.1 L610.6,588.1 Z" class="pos"><title>2026-08-03: +0.00 net PnL (cum -4.32)</title></path>
<path d="M622.3,588.1 L622.3,585.1 Q622.3,589.1 626.3,589.1 L634.3,589.1 Q638.3,589.1 638.3,585.1 L638.3,588.1 Z" class="pos"><title>2026-08-04: +0.00 net PnL (cum -4.32)</title></path>
<path d="M677.8,588.1 L677.8,613.2 Q677.8,617.2 681.8,617.2 L689.8,617.2 Q693.8,617.2 693.8,613.2 L693.8,588.1 Z" class="neg"><title>2026-08-06: -7.88 net PnL (cum -12.20)</title></path>
<path d="M705.5,588.1 L705.5,580.4 Q705.5,576.4 709.5,576.4 L717.5,576.4 Q721.5,576.4 721.5,580.4 L721.5,588.1 Z" class="pos"><title>2026-08-07: +3.18 net PnL (cum -9.02)</title></path>
<path d="M733.2,588.1 L733.2,526.5 Q733.2,522.5 737.2,522.5 L745.2,522.5 Q749.2,522.5 749.2,526.5 L749.2,588.1 Z" class="pos"><title>2026-08-08: +17.80 net PnL (cum +8.78)</title></path>
<text class="t2 lbl" x="741.2" y="517.5" text-anchor="middle">+17.80</text>
<path d="M761.0,588.1 L761.0,553.1 Q761.0,549.1 765.0,549.1 L773.0,549.1 Q777.0,549.1 777.0,553.1 L777.0,588.1 Z" class="pos"><title>2026-08-09: +10.58 net PnL (cum +19.36)</title></path>
<path d="M788.7,588.1 L788.7,616.3 Q788.7,620.3 792.7,620.3 L800.7,620.3 Q804.7,620.3 804.7,616.3 L804.7,588.1 Z" class="neg"><title>2026-08-10: -8.72 net PnL (cum +10.64)</title></path>
<path d="M816.4,588.1 L816.4,663.5 Q816.4,667.5 820.4,667.5 L828.4,667.5 Q832.4,667.5 832.4,663.5 L832.4,588.1 Z" class="neg"><title>2026-08-11: -21.52 net PnL (cum -10.88)</title></path>
<text class="t2 lbl" x="824.4" y="680.5" text-anchor="middle">-21.52</text>
<path d="M844.1,588.1 L844.1,640.3 Q844.1,644.3 848.1,644.3 L856.1,644.3 Q860.1,644.3 860.1,640.3 L860.1,588.1 Z" class="neg"><title>2026-08-12: -15.22 net PnL (cum -26.10)</title></path>
<text class="t2 lbl" x="852.1" y="657.3" text-anchor="middle">-15.22</text>
<text class="t2 lbl" x="75.9" y="702" text-anchor="middle">Jul 15</text>
<text class="t2 lbl" x="269.9" y="702" text-anchor="middle">Jul 22</text>
<text class="t2 lbl" x="464.0" y="702" text-anchor="middle">Jul 29</text>
<text class="t2 lbl" x="658.1" y="702" text-anchor="middle">Aug 05</text>
<text class="t2 lbl" x="852.1" y="702" text-anchor="middle">Aug 12</text>
<text class="t2 lbl" x="866" y="768" text-anchor="end">settled-only PnL attributed to fill day; source: LEDGER.csv</text>
</svg>